<svg width="45" height="50" viewBox="0 0 45 50" fill="none" xmlns="http://www.w3.org/2000/svg">
<path fill-rule="evenodd" clip-rule="evenodd" d="M12.311 12.0698H4.91098C3.60946 12.0698 2.36118 12.5866 1.4405 13.5065C0.519807 14.4265 0.00203686 15.6743 0.000976562 16.9758V44.1058C0.00309448 45.407 0.521204 46.6543 1.44166 47.574C2.36212 48.4937 3.60978 49.0108 4.91098 49.0118H39.411C40.0558 49.0124 40.6943 48.8859 41.2903 48.6396C41.8862 48.3933 42.4277 48.0321 42.884 47.5765C43.3404 47.121 43.7025 46.58 43.9497 45.9845C44.1969 45.389 44.3245 44.7506 44.325 44.1058V16.9758C44.3229 15.6739 43.8042 14.4261 42.8829 13.5063C41.9615 12.5864 40.7129 12.0698 39.411 12.0698H32.011C31.5203 12.0698 31.0498 12.2647 30.7028 12.6117C30.3559 12.9586 30.161 13.4292 30.161 13.9198C30.161 14.4105 30.3559 14.881 30.7028 15.228C31.0498 15.5749 31.5203 15.7698 32.011 15.7698H40.629V45.3188H3.69598V15.7648H12.311L12.432 15.7568C14.674 15.7538 14.524 12.0698 12.311 12.0698Z" fill="black"/>
<path fill-rule="evenodd" clip-rule="evenodd" d="M22.2174 32.0176C21.7379 31.9855 21.2862 31.7805 20.9464 31.4406C20.6065 31.1008 20.4015 30.6491 20.3694 30.1696V1.84758C20.3694 1.35746 20.5641 0.887411 20.9107 0.540844C21.2573 0.194277 21.7273 -0.000419617 22.2174 -0.000419617C22.697 0.0316793 23.1486 0.236685 23.4885 0.576542C23.8283 0.916399 24.0333 1.36802 24.0654 1.84758V30.1696C24.0654 30.6597 23.8707 31.1297 23.5242 31.4763C23.1776 31.8229 22.7076 32.0176 22.2174 32.0176Z" fill="black"/>
<path fill-rule="evenodd" clip-rule="evenodd" d="M20.9111 33.7726C20.5949 33.411 20.4206 32.947 20.4206 32.4666C20.4206 31.9862 20.5949 31.5222 20.9111 31.1606L28.7481 23.3236C28.9196 23.152 29.1231 23.0158 29.3472 22.9229C29.5713 22.8301 29.8115 22.7822 30.0541 22.7822C30.2967 22.7822 30.5369 22.8301 30.761 22.9229C30.9851 23.0158 31.1887 23.152 31.3601 23.3236C31.6763 23.6852 31.8506 24.1492 31.8506 24.6296C31.8506 25.11 31.6763 25.574 31.3601 25.9356L23.5221 33.7726C23.3507 33.9442 23.1471 34.0804 22.923 34.1733C22.6989 34.2662 22.4587 34.314 22.2161 34.314C21.9735 34.314 21.7333 34.2662 21.5092 34.1733C21.2851 34.0804 21.0826 33.9442 20.9111 33.7726Z" fill="black"/>
<path fill-rule="evenodd" clip-rule="evenodd" d="M13.0731 23.3237C13.4347 23.0075 13.8988 22.8332 14.3791 22.8332C14.8595 22.8332 15.3235 23.0075 15.6851 23.3237L23.5221 31.1607C23.6937 31.3322 23.8299 31.5357 23.9228 31.7598C24.0157 31.9839 24.0635 32.2241 24.0635 32.4667C24.0635 32.7093 24.0157 32.9495 23.9228 33.1736C23.8299 33.3977 23.6937 33.6013 23.5221 33.7727C23.1605 34.0889 22.6965 34.2632 22.2161 34.2632C21.7358 34.2632 21.2717 34.0889 20.9101 33.7727L13.0731 25.9357C12.9015 25.7643 12.7653 25.5607 12.6725 25.3366C12.5796 25.1125 12.5318 24.8723 12.5318 24.6297C12.5318 24.3871 12.5796 24.1469 12.6725 23.9228C12.7653 23.6987 12.9015 23.4952 13.0731 23.3237Z" fill="black"/>
</svg>
