<svg xmlns="http://www.w3.org/2000/svg" width="48.112" height="48.143" viewBox="0 0 48.112 48.143">
  <g id="np_edit_4119165_000000" transform="translate(-8.007 -7.938)">
    <path id="Path_134" data-name="Path 134" d="M57.567,8.331a1.342,1.342,0,0,0-1.9,0L31.983,32.016a1.352,1.352,0,0,0-.38.758l-1.257,8.808A1.343,1.343,0,0,0,31.839,43.1l8.956-1.11a1.354,1.354,0,0,0,.783-.383L65.263,17.927a1.342,1.342,0,0,0,0-1.9ZM40.006,39.388l-6.755.837L34.2,33.6,49.13,18.666l5.8,5.8ZM56.829,22.565l-5.8-5.8,5.589-5.589,5.8,5.8Z" transform="translate(-9.538)"/>
    <path id="Path_135" data-name="Path 135" d="M50.069,56.168a1.166,1.166,0,0,1-1.195,1.179H11.9a1.177,1.177,0,0,1-1.21-1.179V21.08a1.207,1.207,0,0,1,1.21-1.208h19.82V17.187H11.9a3.892,3.892,0,0,0-3.9,3.893V56.168a3.865,3.865,0,0,0,3.9,3.864H48.875a3.854,3.854,0,0,0,3.88-3.864V34.974H50.069Z" transform="translate(0 -3.952)"/>
  </g>
</svg>
